<svg xmlns="http://www.w3.org/2000/svg" id="Post_inst_icon" data-name="Post inst icon" viewBox="0 0 88.7 80.01" width="88.7" height="80.01"><defs id="defs4"><style id="style2"></style></defs><path d="M60.16 68.59h.2c2.37 0-4.72 0-4.72 3.55v5.46c0 5.1-5 .52-5 .52l-8.23-8.51C20.41 68.13 6 56.61 6 37.89 6.02 17.81 22.56 6 47.36 6c26 0 41.34 10.63 41.34 31.89 0 16.38-11.02 27.25-28.54 30.7z" id="path6" style="isolation:isolate" opacity=".06" fill-rule="evenodd"/><path d="M54.16 62.59h.2c2.37 0-4.72 0-4.72 3.55v5.46c0 5.1-5 .52-5 .52l-8.23-8.51C14.41 62.13 0 50.61 0 31.89.02 11.81 16.56 0 41.36 0c26 0 41.34 10.63 41.34 31.89 0 16.38-11.02 27.25-28.54 30.7zm-12.8-41.64a11 11 0 0 0-11 11 11.05 11.05 0 1 0 11-11zm0 18.22A7.18 7.18 0 1 1 48.53 32a7.17 7.17 0 0 1-7.17 7.17zm11.5-21.24a2.58 2.58 0 1 0 2.58 2.58 2.59 2.59 0 0 0-2.58-2.58zm9.9 5.19a15.72 15.72 0 0 0-1-5.22 10.7 10.7 0 0 0-2.48-3.81 10.56 10.56 0 0 0-3.81-2.48 15.53 15.53 0 0 0-5.23-1c-2.29-.11-3-.13-8.87-.13-5.87 0-6.58 0-8.87.13a15.53 15.53 0 0 0-5.23 1 10.56 10.56 0 0 0-3.81 2.48 10.4 10.4 0 0 0-2.48 3.81 15.72 15.72 0 0 0-1 5.22c-.11 2.3-.13 3-.13 8.88 0 5.88 0 6.58.13 8.87a15.66 15.66 0 0 0 1 5.22 10.51 10.51 0 0 0 2.48 3.82 10.7 10.7 0 0 0 3.81 2.48 16 16 0 0 0 5.23 1c2.29.1 3 .13 8.87.13 5.87 0 6.58 0 8.87-.13a16 16 0 0 0 5.23-1 10.7 10.7 0 0 0 3.81-2.48 10.51 10.51 0 0 0 2.48-3.82 15.66 15.66 0 0 0 1-5.22c.1-2.3.13-3 .13-8.87 0-5.87-.03-6.58-.13-8.88zm-3.87 17.55a12.18 12.18 0 0 1-.74 4 6.73 6.73 0 0 1-1.61 2.48 6.63 6.63 0 0 1-2.48 1.6 11.83 11.83 0 0 1-4 .75c-2.27.1-2.95.12-8.7.12-5.75 0-6.43 0-8.7-.12a11.65 11.65 0 0 1-4-.74 7.13 7.13 0 0 1-4.07-4.09 12.18 12.18 0 0 1-.74-4c-.1-2.26-.12-2.95-.12-8.69 0-5.74 0-6.43.12-8.7a12.18 12.18 0 0 1 .74-4 6.7 6.7 0 0 1 1.61-2.47 6.61 6.61 0 0 1 2.48-1.61 11.65 11.65 0 0 1 4-.74c2.27-.11 2.95-.13 8.7-.13 5.75 0 6.43 0 8.7.13a11.9 11.9 0 0 1 4 .74 7.13 7.13 0 0 1 4.09 4.08 12.18 12.18 0 0 1 .74 4c.1 2.27.12 2.95.12 8.7 0 5.75-.04 6.44-.14 8.69z" id="path8" fill="#fff" fill-rule="evenodd"/></svg>