<svg xmlns="http://www.w3.org/2000/svg" viewBox="0 0 79.623 71.313" width="79.623" height="71.313"><path d="M8.925 38.798l16.8 6.2 6.2 20.6c.5 1.4 1.9 1.9 2.9 1l9.1-7.7c1-1 2.4-1 3.4 0l16.8 12c1 1 2.9 0 2.9-1l12.5-59c.5-1.4-1-2.9-2.4-2.4l-68.2 26.4c-2 .5-2 2.9 0 3.9z" opacity=".06"/><path d="M1.425 30.398l16.8 6.2 6.2 20.6c.5 1.4 1.9 1.9 2.9 1l9.1-7.7c1-1 2.4-1 3.4 0l16.8 12c1 1 2.9 0 2.9-1l12.5-59c.5-1.4-1-2.9-2.4-2.4l-68.2 26.5c-1.9.5-1.9 2.9 0 3.8zm21.6 2.9l32.6-20.1c.5-.5 1 .5.5 1l-26.4 24.9c-1 1-1.9 1.9-1.9 3.4l-1 6.7c0 1-1.4 1-1.4 0l-3.8-12.5c0-1.5.4-2.9 1.4-3.4z" fill="#fff"/></svg>