<?xml version="1.0" encoding="utf-8"?>
<!-- Generator: Adobe Illustrator 18.1.1, SVG Export Plug-In . SVG Version: 6.00 Build 0)  -->
<!DOCTYPE svg PUBLIC "-//W3C//DTD SVG 1.1//EN" "http://www.w3.org/Graphics/SVG/1.1/DTD/svg11.dtd">
<svg version="1.1" xmlns="http://www.w3.org/2000/svg" xmlns:xlink="http://www.w3.org/1999/xlink" x="0px" y="0px"
	 viewBox="0 0 120 120" enable-background="new 0 0 120 120" xml:space="preserve">
<g id="Layer_1">
</g>
<g id="Layer_3">
</g>
<g id="Layer_2">
	<path fill="none" stroke="#FFFFFF" stroke-width="4" stroke-miterlimit="10" d="M88,79.9H29.9c-1.6,0-3-1.3-3-3V40.5
		c0-1.7,1.4-3,3-3H88c1.7,0,3,1.3,3,3v36.4C91,78.5,89.7,79.9,88,79.9z"/>
	<path opacity="0.4" fill="#FFFFFF" d="M88,79.9H29.9c-1.6,0-3-1.3-3-3V40.5c0-1.7,1.4-3,3-3H88c1.7,0,3,1.3,3,3v36.4
		C91,78.5,89.7,79.9,88,79.9z"/>
	<rect x="28.1" y="48" fill="#FFFFFF" width="62.9" height="7.9"/>
	<circle fill="#FFFFFF" cx="70.9" cy="67.6" r="5.4"/>
	<circle fill="#FFFFFF" cx="78.1" cy="67.6" r="5.4"/>
	
		<line fill="none" stroke="#FFFFFF" stroke-width="5" stroke-linecap="round" stroke-miterlimit="10" x1="36.8" y1="67.4" x2="47.5" y2="67.4"/>
	<path opacity="6.000000e-002" d="M93,41.8v35.1c0,2.8-2.2,5-5,5H29.9c-0.3,0-0.7,0-1-0.1v1.3c0,2.8,2.2,5,5,5H92c2.8,0,5-2.2,5-5
		V46.7C97,44.3,95.3,42.3,93,41.8z"/>
</g>
</svg>
