<?xml version="1.0" encoding="utf-8"?>
<!-- Generator: Adobe Illustrator 18.1.1, SVG Export Plug-In . SVG Version: 6.00 Build 0)  -->
<!DOCTYPE svg PUBLIC "-//W3C//DTD SVG 1.1//EN" "http://www.w3.org/Graphics/SVG/1.1/DTD/svg11.dtd">
<svg version="1.1" xmlns="http://www.w3.org/2000/svg" xmlns:xlink="http://www.w3.org/1999/xlink" x="0px" y="0px"
	 viewBox="0 0 120 120" enable-background="new 0 0 120 120" xml:space="preserve">
<g id="Layer_2">
</g>
<g id="Layer_1">
	<g opacity="6.000000e-002">
		<path d="M61,83.7H42.2c-1,0-1.9-0.2-2.8-0.4c0.7,4.2,4.4,7.4,8.8,7.4H67v-20h-6V83.7z"/>
		<path d="M75.1,62.9h0.8l0.9-7h-1.4c-0.2,0.6-0.3,1.3-0.3,2V62.9z"/>
		<path d="M72.9,47.1l1.5,0c0.8-0.2,1.7-0.3,2.7-0.3c0,0,0,0,0,0v-6.7c-0.7-0.1-3.2-0.3-6-0.3c-5.9,0-10,3.6-10,10.3v5.7h-6.7v7.8h6
			v-0.8H67v-5.7c0-2.9,0.8-5.1,2.1-6.8C69.2,48.4,70,47.1,72.9,47.1z"/>
		<path d="M85.3,39c0.1,0.5,0.1,1,0.1,1.5v34.3c0,4.9-4,8.9-8.9,8.9h-1.4v7h7.4c4.9,0,8.9-4,8.9-8.9V47.5
			C91.4,43.5,88.8,40.2,85.3,39z"/>
	</g>
	<path fill="#FFFFFF" d="M76.5,31.8H42.2c-4.9,0-8.9,4-8.9,8.9V75c0,4.9,4,8.9,8.9,8.9H61v-20h-6.7v-7.8H61v-5.7
		c0-6.7,4.1-10.3,10-10.3c2.9,0,5.3,0.2,6,0.3v7l-4.1,0c-3.2,0-3.9,1.5-3.9,3.8v5h7.7l-1,7.8h-6.7v20h7.4c4.9,0,8.9-4,8.9-8.9V40.7
		C85.4,35.8,81.4,31.8,76.5,31.8z"/>
</g>
</svg>
