<?xml version="1.0" encoding="utf-8"?>
<!-- Generator: Adobe Illustrator 22.0.1, SVG Export Plug-In . SVG Version: 6.00 Build 0)  -->
<svg version="1.1" xmlns="http://www.w3.org/2000/svg" xmlns:xlink="http://www.w3.org/1999/xlink" x="0px" y="0px"
	 viewBox="0 0 120 120" style="enable-background:new 0 0 120 120;" xml:space="preserve">
<style type="text/css">
	.st0{fill:none;}
	.st1{fill:#FFFFFF;}
	.st2{opacity:0.4;fill:#FFFFFF;}
	.st3{fill:none;stroke:#FFFFFF;stroke-width:5;stroke-miterlimit:10;}
	.st4{fill:none;stroke:#FFFFFF;stroke-width:5;stroke-linecap:round;stroke-linejoin:round;stroke-miterlimit:10;}
	.st5{opacity:6.000000e-02;}
</style>
<g id="Слой_1">
</g>
<g id="Слой_3">
</g>
<g id="Слой_2">
	<path class="st0" d="M-49.4,32.4c-0.1-0.6-1.1-7-6.8-7c-5.7,0-6.7,6.3-6.8,7l-0.4,6.4H-49L-49.4,32.4z"/>
	<path class="st1" d="M-48.5,94L-48.5,94C-48.4,94-48.4,94-48.5,94C-48.5,94-48.5,94-48.5,94z"/>
	<g>
		<path class="st0" d="M57.6,29.4c-0.1-0.6-1.1-7-6.8-7c-5.7,0-6.7,6.3-6.8,7l-0.4,6.4H58L57.6,29.4z"/>
		<path class="st2" d="M70,74.9c-3.2-2.7-5.5-7.7-5.5-15.9c0-4,2.8-8.3,7.2-10.3l-0.3-5.8c0,0,0-0.1,0-0.1c0-1.1-0.9-1.9-1.9-1.9
			h-7.1l0.1,1c0.9,0.5,1.6,1.6,1.6,2.7c0,1.7-1.4,3.2-3.2,3.2s-3.2-1.4-3.2-3.2c0-0.8,0.3-1.5,0.8-2.1l-0.1-1.7h-15l-0.1,1.3
			c0.7,0.6,1.2,1.5,1.2,2.5c0,1.7-1.4,3.2-3.2,3.2c-1.7,0-3.2-1.4-3.2-3.2c0-0.9,0.4-1.8,1.1-2.4l0.1-1.4h-7.1
			c-1.1,0-1.9,0.9-1.9,1.9c0,0,0,0.1,0,0.1l-1.8,39c0,1,0.9,1.9,1.9,1.9h25.1c0.6-1.6,1.3-3,2.2-4C59.3,78.2,64.8,76.4,70,74.9z"/>
		<g>
			<path class="st1" d="M76.4,42.7c0-3.8-3.1-6.9-6.9-6.9H62L61.6,29c-0.4-3.6-3.2-10.5-10.8-10.5c-7.6,0-10.3,6.9-10.8,10.6
				l-0.4,6.7h-7.4c-3.8,0-6.9,3.1-6.9,6.9l-1.8,39c0,0,0,0.1,0,0.1c0,3.8,3.1,6.9,6.9,6.9h23.8c0.1-0.8,0.3-1.6,0.5-2.5
				c0.2-0.8,0.4-1.7,0.7-2.5H30.4c-1.1,0-1.9-0.8-1.9-1.9l1.8-39c0,0,0-0.1,0-0.1c0-1.1,0.9-1.9,1.9-1.9h7.1l-0.1,1.4
				c-0.7,0.6-1.1,1.4-1.1,2.4c0,1.7,1.4,3.2,3.2,3.2c1.7,0,3.2-1.4,3.2-3.2c0-1-0.5-1.9-1.2-2.5l0.1-1.3h15l0.1,1.7
				c-0.5,0.6-0.8,1.3-0.8,2.1c0,1.7,1.4,3.2,3.2,3.2s3.2-1.4,3.2-3.2c0-1.2-0.6-2.2-1.6-2.7l-0.1-1h7.1c1.1,0,1.9,0.9,1.9,1.9
				c0,0,0,0.1,0,0.1l0.3,5.8c0.8-0.4,1.6-0.6,2.5-0.8c0.8-0.2,1.6-0.3,2.5-0.3L76.4,42.7z M43.7,35.8l0.4-6.4c0.1-0.6,1.1-7,6.8-7
				c5.7,0,6.7,6.3,6.8,7l0.4,6.4H43.7z"/>
			<path class="st1" d="M58.5,91L58.5,91C58.6,91,58.6,91,58.5,91C58.5,91,58.5,91,58.5,91z"/>
		</g>
		<g>
			<path class="st3" d="M66,59c0-4,3.9-9,10-9c6,0,10,5,10,9c0,3-1,16-10,16S66,63,66,59z"/>
			<path class="st4" d="M58.5,81.5c2-2,17.2-5.8,17.2-5.8s15.8,4.8,16.8,5.8s3,9,3,10c0,2-2,2-2,2h-36c0,0-2,0-2-2
				S56.5,83.5,58.5,81.5z"/>
			<path class="st2" d="M66,59.5c0-4,3.9-9,10-9c6,0,10,5,10,9c0,3-1,16-10,16S66,63.5,66,59.5z"/>
			<path class="st2" d="M58.5,82c2-2,17.2-5.8,17.2-5.8S91.5,81,92.5,82s3,9,3,10c0,2-2,2-2,2h-36c0,0-2,0-2-2S56.5,84,58.5,82z"/>
		</g>
	</g>
	<g class="st5">
		<path d="M58.6,91C58.6,91,58.6,91,58.6,91C58.5,91,58.5,91,58.6,91L58.6,91z"/>
		<path d="M76.4,42.7l0.2,4.8c0,0-0.1,0-0.1,0c1.4,0.1,2.7,0.3,3.8,0.8c-0.2-2.6-1.8-4.8-4-5.8C76.4,42.5,76.4,42.6,76.4,42.7z"/>
		<path d="M88.5,59c0,0.5-0.1,5.4-1.8,10c-1.1,3-2.6,4.9-4.2,6.2c3.1,1,5.4,1.7,7,2.3c0.4-0.8,0.8-1.6,1.2-2.5
			c1.7-4.6,1.8-9.5,1.8-10c0-3.1-1.6-6.3-4.4-8.6C88.4,57.3,88.5,58.1,88.5,59z"/>
		<path d="M61.6,29l0.4,6.8h3.6L65.6,35c-0.3-2.4-1.6-6.2-4.6-8.5C61.3,27.4,61.5,28.3,61.6,29z"/>
		<path d="M48.1,35.4c0.1-0.6,1.1-7,6.8-7c1.1,0,2,0.2,2.7,0.6c-0.2-0.9-0.7-2.9-2.1-4.5c-0.2,0-0.4,0-0.6,0
			c-7.6,0-10.3,6.9-10.8,10.6l0,0.7h4L48.1,35.4z"/>
		<path d="M100.8,91.8c-1.4-5-2.1-5.7-2.5-6.1c-0.2-0.2-0.5-0.5-1.8-1c0.1,0.4,0.2,0.7,0.3,1.1c0.1,0.4,1.2,4.4,1.2,5.7
			c0,2.9-2.3,4.5-4.5,4.5h-36c-0.1,0-0.3,0-0.4,0C57,96.6,57,97.2,57,97.5c0,2.9,2.3,4.5,4.5,4.5h36c2.2,0,4.5-1.6,4.5-4.5
			C102,96.2,100.9,92.3,100.8,91.8z M62.5,97C62.5,97,62.5,97,62.5,97C62.6,97,62.6,97,62.5,97L62.5,97z"/>
		<path d="M53,91.5c0-0.5,0.1-1.6,0.3-2.8H30.4c-1,0-2-0.2-2.9-0.7c0.1,3.7,3.2,6.7,6.9,6.7h19.9C53.5,93.9,53,92.9,53,91.5z"/>
	</g>
</g>
</svg>
