<?xml version="1.0" encoding="utf-8"?>
<!-- Generator: Adobe Illustrator 18.1.1, SVG Export Plug-In . SVG Version: 6.00 Build 0)  -->
<!DOCTYPE svg PUBLIC "-//W3C//DTD SVG 1.1//EN" "http://www.w3.org/Graphics/SVG/1.1/DTD/svg11.dtd">
<svg version="1.1" xmlns="http://www.w3.org/2000/svg" xmlns:xlink="http://www.w3.org/1999/xlink" x="0px" y="0px"
	 viewBox="0 0 120 120" enable-background="new 0 0 120 120" xml:space="preserve">
<g id="Layer_3">
	<path d="M64.2,70.9c0,0.2,0,0.3,0,0.5L64.2,70.9L64.2,70.9z"/>
	<path d="M68.5,77.6c0,0.2,0,0.3,0,0.5L68.5,77.6L68.5,77.6z"/>
	<g opacity="6.000000e-002">
		<path d="M66.5,33.8c1.1-2.8,3.8-4.7,7-4.7c1.4,0,2.8,0.4,3.9,1.1c0-0.1,0-0.2,0-0.3c0-1.7-0.6-3.3-1.6-4.6
			c-0.8-0.2-1.6-0.3-2.4-0.3c-3.9,0-7.4,2-9.5,5c-0.4-0.6-0.9-1.2-1.4-1.7c-0.1,0.4-0.1,0.8-0.1,1.1c0,0.1,0,0.2,0,0.3v3.9H66.5z"/>
		<path d="M81.4,29.9c0,1.4-0.3,2.7-0.7,3.9h3.9c-0.6-2.2-1.7-4.1-3.3-5.6C81.4,28.8,81.4,29.3,81.4,29.9z"/>
		<path d="M43.8,32.3c0.2,0.5,0.4,1,0.7,1.5h3c1.1-2.8,3.8-4.7,7-4.7c1.4,0,2.8,0.4,3.9,1.1v-0.3c0-0.1,0-0.2,0-0.3
			c-0.1-1.6-0.6-3-1.5-4.2c-0.8-0.2-1.6-0.3-2.4-0.3C49.6,25.1,45.5,28.1,43.8,32.3z"/>
		<path d="M92.2,40.8v42.4c0,2.8-2.2,5-5,5H32.8c-0.5,0-1-0.1-1.4-0.2v1.9c0,2.8,2.2,5,5,5h54.3c2.8,0,5-2.2,5-5V45.5
			C95.7,43.3,94.2,41.4,92.2,40.8z"/>
	</g>
</g>
<g id="Layer_2">
	<rect x="31.8" y="49.9" fill="#FFFFFF" width="56.8" height="4.2"/>
	<polygon fill="none" points="-41.5,72.3 -41.5,70.3 -41.5,70.3 	"/>
	<path fill="#FFFFFF" d="M70.1,18.4c-3.9,0-7.4,2-9.5,5c-2.1-3-5.6-5-9.5-5c-6.3,0-11.5,5.2-11.5,11.5c0,1.4,0.3,2.7,0.7,3.9h4.4
		c-0.7-1.1-1.1-2.5-1.1-3.9c0-4.1,3.4-7.5,7.5-7.5c4,0,7.3,3.2,7.5,7.2c0,0.1,0,0.2,0,0.3v55.6h0h4h0V29.9c0-0.1,0-0.2,0-0.3
		c0.2-4,3.5-7.2,7.5-7.2c4.1,0,7.5,3.4,7.5,7.5c0,1.4-0.4,2.8-1.1,3.9h4.4c0.4-1.2,0.7-2.5,0.7-3.9C81.6,23.6,76.4,18.4,70.1,18.4z"
		/>
	<path fill="none" stroke="#FFFFFF" stroke-width="4" stroke-miterlimit="10" d="M87.3,86.2H33c-1.6,0-3-1.3-3-3V38.8
		c0-1.6,1.4-3,3-3h54.3c1.6,0,3,1.4,3,3v44.4C90.3,84.8,89,86.2,87.3,86.2z"/>
	<path opacity="0.4" fill="#FFFFFF" d="M87.3,86.2H33c-1.6,0-3-1.3-3-3V38.8c0-1.6,1.4-3,3-3h54.3c1.6,0,3,1.4,3,3v44.4
		C90.3,84.8,89,86.2,87.3,86.2z"/>
</g>
</svg>
