<?xml version="1.0" encoding="utf-8"?>
<!-- Generator: Adobe Illustrator 22.0.1, SVG Export Plug-In . SVG Version: 6.00 Build 0)  -->
<svg version="1.1" xmlns="http://www.w3.org/2000/svg" xmlns:xlink="http://www.w3.org/1999/xlink" x="0px" y="0px"
	 viewBox="0 0 120 120" style="enable-background:new 0 0 120 120;" xml:space="preserve">
<style type="text/css">
	.st0{fill:none;stroke:#FFFFFF;stroke-width:5;stroke-linecap:round;stroke-linejoin:round;stroke-miterlimit:10;}
	.st1{opacity:0.4;fill:#FFFFFF;}
	.st2{opacity:6.000000e-02;}
</style>
<g id="Слой_1">
</g>
<g id="Слой_3">
</g>
<g id="Слой_2">
	<path class="st0" d="M71.5,28.5c-10.5,0-19,8.5-19,19c0,1.4,0.2,2.8,0.5,4.2c-1.9,0.2-4.3,0.7-5.5,1.8c-2,2,2,6,2,6s-16,16-17,17
		s-1,8,0,9s11,1,12,0s4-4,4-4v-5h6v-6l4-2c0,0,3,3,5,2c1.2-0.6,2-2,2.5-4.8c1.7,0.5,3.6,0.8,5.5,0.8c10.5,0,19-8.5,19-19
		S82,28.5,71.5,28.5z M75.5,48.5c-2.8,0-5-2.2-5-5s2.2-5,5-5s5,2.2,5,5S78.3,48.5,75.5,48.5z"/>
	<path class="st1" d="M71.5,28.5c-10.5,0-19,8.5-19,19c0,1.4,0.2,2.8,0.5,4.2c-1.9,0.2-4.3,0.7-5.5,1.8c-2,2,2,6,2,6s-16,16-17,17
		s-1,8,0,9s11,1,12,0s4-4,4-4v-5h6v-6l4-2c0,0,3,3,5,2c1.2-0.6,2-2,2.5-4.8c1.7,0.5,3.6,0.8,5.5,0.8c10.5,0,19-8.5,19-19
		S82,28.5,71.5,28.5z M75.5,48.5c-2.8,0-5-2.2-5-5s2.2-5,5-5s5,2.2,5,5S78.3,48.5,75.5,48.5z"/>
	<path class="st1" d="M71.5,28.5c-10.5,0-19,8.5-19,19c0,1.4,0.2,2.8,0.5,4.2c-1.9,0.2-4.3,0.7-5.5,1.8c-2,2,2,6,2,6s-16,16-17,17
		s-1,8,0,9s11,1,12,0s4-4,4-4v-5h6v-6l4-2c0,0,3,3,5,2c1.2-0.6,2-2,2.5-4.8c1.7,0.5,3.6,0.8,5.5,0.8c10.5,0,19-8.5,19-19
		S82,28.5,71.5,28.5z M75.5,48.5c-2.8,0-5-2.2-5-5s2.2-5,5-5s5,2.2,5,5S78.3,48.5,75.5,48.5z"/>
	<path class="st2" d="M87.2,32.9c3.6,3.8,5.8,9,5.8,14.6C93,59.4,83.4,69,71.5,69c-1.2,0-2.5-0.1-3.7-0.3c-0.6,1.6-1.5,3.2-3.2,4.1
		c-2.4,1.2-4.9-0.1-6.5-1.3L57,72v4.5c0,1.4-1.1,2.5-2.5,2.5H51v2.5c0,0.7-0.3,1.3-0.7,1.8l-4,4c-0.5,0.5-1.5,1.5-7.8,1.5
		c-0.8,0-1.5,0-2.1,0c0.2,1.6,0.7,2.9,1.3,3.6c0.5,0.5,1.5,1.5,7.8,1.5s7.3-1,7.8-1.5l4-4c0.5-0.5,0.7-1.1,0.7-1.8V84h3.5
		c1.4,0,2.5-1.1,2.5-2.5V77l1.1-0.6c1.6,1.2,4.1,2.5,6.5,1.3c1.7-0.8,2.6-2.4,3.2-4.1c1.2,0.2,2.4,0.3,3.7,0.3
		c11.9,0,21.5-9.6,21.5-21.5C100,43.7,94.7,36.2,87.2,32.9z"/>
</g>
</svg>
