<?xml version="1.0" encoding="utf-8"?>
<!-- Generator: Adobe Illustrator 18.1.1, SVG Export Plug-In . SVG Version: 6.00 Build 0)  -->
<!DOCTYPE svg PUBLIC "-//W3C//DTD SVG 1.1//EN" "http://www.w3.org/Graphics/SVG/1.1/DTD/svg11.dtd">
<svg version="1.1" xmlns="http://www.w3.org/2000/svg" xmlns:xlink="http://www.w3.org/1999/xlink" x="0px" y="0px"
	 viewBox="0 0 120 120" enable-background="new 0 0 120 120" xml:space="preserve">
<g id="Layer_1">
</g>
<g id="Layer_2">
	<g>
		<path fill="#FFFFFF" d="M81,29.9L26.3,44.1c-3.2,0.8-5.1,4.1-4.3,7.3l8.7,33.5c0.8,3.2,4.1,5.1,7.3,4.3L92.7,75
			c3.2-0.8,5.1-4.1,4.3-7.3l-8.7-33.5C87.5,31,84.2,29.1,81,29.9z M41.9,55.6c-1-3.8,1.2-7.6,4.8-8.5c3.6-0.9,7.4,1.3,8.4,5.1
			c1,3.8-1.2,7.6-4.8,8.5C46.6,61.6,42.9,59.3,41.9,55.6z M54.8,74.4l6.6-30.9l2.9-0.8l-6.5,30.9L54.8,74.4z M72.1,69.9
			c-3.6,0.9-7.4-1.3-8.4-5.1c-1-3.8,1.2-7.6,4.8-8.5c3.6-0.9,7.4,1.3,8.4,5.1C78,65.1,75.8,68.9,72.1,69.9z"/>
		<circle fill="#FFFFFF" cx="48.5" cy="53.8" r="3"/>
		<circle fill="#FFFFFF" cx="70.4" cy="63.1" r="3"/>
	</g>
</g>
<g id="Layer_3">
	<path opacity="6.000000e-002" d="M89.1,37.2L97,67.7c0.8,3.2-1.1,6.5-4.3,7.3L38,89.2c-0.9,0.2-1.8,0.2-2.7,0.1l0.8,3
		c0.8,3.2,4.1,5.1,7.3,4.3l54.7-14.2c3.2-0.8,5.1-4.1,4.3-7.3l-8.7-33.5C93.1,39.2,91.2,37.6,89.1,37.2z"/>
</g>
</svg>
