<?xml version="1.0" encoding="utf-8"?>
<!-- Generator: Adobe Illustrator 22.0.1, SVG Export Plug-In . SVG Version: 6.00 Build 0)  -->
<svg version="1.1" xmlns="http://www.w3.org/2000/svg" xmlns:xlink="http://www.w3.org/1999/xlink" x="0px" y="0px"
	 viewBox="0 0 120 120" style="enable-background:new 0 0 120 120;" xml:space="preserve">
<style type="text/css">
	.st0{fill:none;stroke:#FFFFFF;stroke-width:4;stroke-miterlimit:10;}
	.st1{opacity:0.4;fill:#FFFFFF;}
	.st2{opacity:6.000000e-02;}
</style>
<g id="Слой_1">
</g>
<g id="Слой_2">
	<path class="st0" d="M88.5,74.2L42,86.5c-3.2,0.8-6.5-1.1-7.3-4.3l-8.2-31.1c-0.8-3.2,1.1-6.5,4.3-7.3l46.6-12.3
		c3.2-0.8,6.5,1.1,7.3,4.3l8.2,31.1C93.7,70.1,91.7,73.4,88.5,74.2z"/>
	<path class="st1" d="M88.5,74.2L42,86.5c-3.2,0.8-6.5-1.1-7.3-4.3l-8.2-31.1c-0.8-3.2,1.1-6.5,4.3-7.3l46.6-12.3
		c3.2-0.8,6.5,1.1,7.3,4.3l8.2,31.1C93.7,70.1,91.7,73.4,88.5,74.2z"/>
	<path class="st2" d="M99.8,71.4l-8.2-31.1c-0.5-2.1-1.9-3.8-3.7-4.9c-0.5-0.3-1-0.5-1.5-0.7c0.1,0.2,0.1,0.4,0.2,0.5l8.2,31.1
		c0.5,2.1,0.2,4.2-0.8,6.1c-1.1,1.9-2.8,3.2-4.9,3.7L42.5,88.4c-0.7,0.2-1.4,0.3-2,0.3c-0.9,0-1.7-0.2-2.6-0.4
		c0.6,1.8,1.9,3.4,3.5,4.4c1.2,0.7,2.6,1.1,4,1.1c0.7,0,1.4-0.1,2-0.3l46.6-12.3c2.1-0.5,3.8-1.9,4.9-3.7
		C100,75.6,100.3,73.4,99.8,71.4z"/>
	<path class="st0" d="M27.6,45.8C27.6,45.8,56,62,58,63s5,0,6-1s16.2-29.6,16.2-29.6"/>
	<line class="st0" x1="37.9" y1="86.1" x2="54.2" y2="60.9"/>
	<line class="st0" x1="93" y1="71" x2="66" y2="58"/>
</g>
</svg>
