<?xml version="1.0" encoding="utf-8"?>
<!-- Generator: Adobe Illustrator 18.1.1, SVG Export Plug-In . SVG Version: 6.00 Build 0)  -->
<!DOCTYPE svg PUBLIC "-//W3C//DTD SVG 1.1//EN" "http://www.w3.org/Graphics/SVG/1.1/DTD/svg11.dtd">
<svg version="1.1" id="Layer_1" xmlns="http://www.w3.org/2000/svg" xmlns:xlink="http://www.w3.org/1999/xlink" x="0px" y="0px"
	 viewBox="0 0 120 120" enable-background="new 0 0 120 120" xml:space="preserve">
<g opacity="6.000000e-002">
	<path d="M97.3,42.5c2.6,4.5,4,9.6,4,15.1c0,15.8-12.1,28.8-27.5,30.3c-3.6,0.7-4.4,1.5-4.3,3.2c0.1,1.4,0.1,4.8,0,7.7
		c-0.1,2.1-2.6,1.7-4.3,0c-1.8-1.7-6-6.1-8.2-8.2c-2.1-1.9-5.3-2.5-6.6-2.6h-1.6c-7.9,0-15.1-3-20.6-8c5.3,9.1,15.1,15.3,26.4,15.3
		h1.6c1.3,0.1,4.5,0.7,6.6,2.6c2.2,2,6.4,6.4,8.2,8.2c1.8,1.7,4.2,2.1,4.3,0c0.1-2.8,0.1-6.3,0-7.7c-0.1-1.7,0.7-2.5,4.3-3.2
		c15.4-1.5,27.5-14.5,27.5-30.3C107.1,56,103.3,48.1,97.3,42.5z"/>
</g>
<path fill="#FFFFFF" d="M70.9,27.2H48.8c-16.8,0-30.4,13.6-30.4,30.4C18.4,74.4,32,88,48.8,88h1.6c1.3,0.1,4.5,0.7,6.6,2.6
	c2.2,2,6.4,6.4,8.2,8.2c1.8,1.7,4.2,2.1,4.3,0c0.1-2.8,0.1-6.3,0-7.7c-0.1-1.7,0.7-2.5,4.3-3.2c15.4-1.5,27.5-14.5,27.5-30.3
	C101.3,40.8,87.7,27.2,70.9,27.2z M77.9,61.7c1.4,1.5,3,2.9,4.4,4.4c1,1.1,1.9,2.3,2.7,3.6c1,1.6,0.4,3.1-1.5,3.4
	c-1.2,0.2-7,0-7.3,0c-1.6,0-2.9-0.5-4-1.6c-1.2-1.2-2.3-2.5-3.5-3.7c-0.4-0.4-0.7-0.7-1.1-1c-1-0.7-1.9-0.6-2.4,0.6
	c-0.4,1-0.7,3.5-0.7,3.7c-0.1,1.1-0.8,1.9-2.1,1.9c-3.7,0.2-7.3-0.2-10.6-2c-2.8-1.5-5.1-3.6-7-6.1c-3.1-4-5.5-8.3-7.8-12.8
	c-0.1-0.2-2.4-5-2.4-5.3c-0.2-0.8,0-1.5,0.6-1.7c0.4-0.2,7.9,0,8,0c1.2,0.1,2,0.6,2.5,1.8c1.4,3.5,3.2,6.8,5.6,9.8
	c0.3,0.4,0.7,0.7,1.1,1c0.6,0.4,1.2,0.3,1.4-0.4c0.3-0.7,0.5-2.2,0.5-3c0-2,0-3.3-0.1-5.4c-0.1-1.3-0.5-2.4-2.4-2.8
	c-0.6-0.1-0.6-0.6-0.3-1.1c0.8-1,1.9-1.2,3.1-1.2c1.9-0.1,3.8,0,5.8,0c0.8,0,1.6,0.1,2.3,0.2c1,0.2,1.5,0.9,1.7,1.9
	c0.1,0.5,0.1,1,0.1,1.5c0,2.2-0.2,4.4-0.2,6.6c0,0.9,0.1,1.7,0.2,2.6c0.3,1.2,1.1,1.5,1.9,0.6c1-1.1,2-2.3,2.8-3.5
	c1.6-2.2,2.7-4.7,3.7-7.2c0.5-1.3,0.9-1.6,2.3-1.6c2.6,0,5.3,0,7.9,0c0.5,0,1,0,1.4,0.2c0.7,0.2,1,0.8,0.8,1.6
	c-0.4,1.7-1.3,3.2-2.3,4.6c-1.6,2.3-3.3,4.5-5,6.8c-0.2,0.3-0.4,0.6-0.6,0.9C77,60.1,77,60.7,77.9,61.7z"/>
</svg>
