<?xml version="1.0" encoding="utf-8"?>
<!-- Generator: Adobe Illustrator 18.1.1, SVG Export Plug-In . SVG Version: 6.00 Build 0)  -->
<!DOCTYPE svg PUBLIC "-//W3C//DTD SVG 1.1//EN" "http://www.w3.org/Graphics/SVG/1.1/DTD/svg11.dtd">
<svg version="1.1" id="Layer_1" xmlns="http://www.w3.org/2000/svg" xmlns:xlink="http://www.w3.org/1999/xlink" x="0px" y="0px"
	 viewBox="0 0 120 120" enable-background="new 0 0 120 120" xml:space="preserve">
<g opacity="6.000000e-002">
	<path d="M97.3,42.5c2.6,4.5,4,9.6,4,15.1c0,15.8-12.1,28.8-27.5,30.3c-3.6,0.7-4.4,1.5-4.3,3.2c0.1,1.4,0.1,4.8,0,7.7
		c-0.1,2.1-2.6,1.7-4.3,0c-1.8-1.7-6-6.1-8.2-8.2c-2.1-1.9-5.3-2.5-6.6-2.6h-1.6c-7.9,0-15.1-3-20.6-8c5.3,9.1,15.1,15.3,26.4,15.3
		h1.6c1.3,0.1,4.5,0.7,6.6,2.6c2.2,2,6.4,6.4,8.2,8.2c1.8,1.7,4.2,2.1,4.3,0c0.1-2.8,0.1-6.3,0-7.7c-0.1-1.7,0.7-2.5,4.3-3.2
		c15.4-1.5,27.5-14.5,27.5-30.3C107.1,56,103.3,48.1,97.3,42.5z"/>
</g>
<path fill="#FFFFFF" d="M70.9,27.2H48.8c-16.8,0-30.4,13.6-30.4,30.4C18.4,74.4,32,88,48.8,88h1.6c1.3,0.1,4.5,0.7,6.6,2.6
	c2.2,2,6.4,6.4,8.2,8.2c1.8,1.7,4.2,2.1,4.3,0c0.1-2.8,0.1-6.3,0-7.7c-0.1-1.7,0.7-2.5,4.3-3.2c15.4-1.5,27.5-14.5,27.5-30.3
	C101.3,40.8,87.7,27.2,70.9,27.2z M77,69.3c0,3.2-2.6,5.7-5.7,5.7h-4.8V62.1h4.3l0.6-5h-5v-3.2c0-1.5,0.4-2.4,2.5-2.4l2.7,0V47
	c-0.5-0.1-2-0.2-3.9-0.2c-3.8,0-6.4,2.3-6.4,6.6v3.7H57v5h4.3V75H49.3c-3.2,0-5.7-2.6-5.7-5.7v-22c0-3.2,2.6-5.7,5.7-5.7h22
	c3.2,0,5.7,2.6,5.7,5.7V69.3z"/>
</svg>
