<?xml version="1.0" encoding="utf-8"?>
<!-- Generator: Adobe Illustrator 18.1.1, SVG Export Plug-In . SVG Version: 6.00 Build 0)  -->
<!DOCTYPE svg PUBLIC "-//W3C//DTD SVG 1.1//EN" "http://www.w3.org/Graphics/SVG/1.1/DTD/svg11.dtd">
<svg version="1.1" xmlns="http://www.w3.org/2000/svg" xmlns:xlink="http://www.w3.org/1999/xlink" x="0px" y="0px"
	 viewBox="0 0 120 120" enable-background="new 0 0 120 120" xml:space="preserve">
<g id="Layer_1">
</g>
<g id="Layer_2">
	<path fill="none" stroke="#FFFFFF" stroke-width="4" stroke-miterlimit="10" d="M98.1,81.1H22.9c-2.8,0-5-2.3-5-5v-30
		c0-2.8,2.3-5,5-5h75.2c2.8,0,5,2.3,5,5v30C103.1,78.8,100.9,81.1,98.1,81.1z"/>
	<g>
		<path fill="#FFFFFF" d="M42.8,53.1l-0.6,5.2l5.2-1.5l0.5,4.3l-4.6,0.3l3,4.1l-3.8,2l-2.1-4.2l-1.8,4.1l-4-2l3-4.1l-4.6-0.4
			l0.7-4.3l5.1,1.5l-0.6-5.2H42.8z"/>
		<path fill="#FFFFFF" d="M62,53.1l-0.6,5.2l5.2-1.5l0.5,4.3l-4.6,0.3l3,4.1l-3.8,2l-2.1-4.2l-1.8,4.1l-4-2l3-4.1l-4.6-0.4l0.7-4.3
			l5.1,1.5l-0.6-5.2H62z"/>
		<path fill="#FFFFFF" d="M81.1,53.1l-0.6,5.2l5.2-1.5l0.5,4.3l-4.6,0.3l3,4.1l-3.8,2l-2.1-4.2L77,67.5l-4-2l3-4.1l-4.6-0.4l0.7-4.3
			l5.1,1.5l-0.6-5.2H81.1z"/>
	</g>
	<path opacity="0.4" fill="#FFFFFF" d="M98.1,81.1H22.9c-2.8,0-5-2.3-5-5v-30c0-2.8,2.3-5,5-5h75.2c2.8,0,5,2.3,5,5v30
		C103.1,78.8,100.9,81.1,98.1,81.1z"/>
</g>
<g id="Layer_3">
	<path opacity="6.000000e-002" d="M104.9,44.4c0.1,0.5,0.2,1.1,0.2,1.7v30c0,3.9-3.1,7-7,7H22.9c-0.7,0-1.4-0.1-2-0.3
		c0.8,3,3.5,5.3,6.8,5.3h75.2c3.9,0,7-3.1,7-7v-30C109.9,48,107.8,45.3,104.9,44.4z"/>
</g>
</svg>
