<?xml version="1.0" encoding="utf-8"?>
<!-- Generator: Adobe Illustrator 22.0.1, SVG Export Plug-In . SVG Version: 6.00 Build 0)  -->
<svg version="1.1" xmlns="http://www.w3.org/2000/svg" xmlns:xlink="http://www.w3.org/1999/xlink" x="0px" y="0px"
	 viewBox="0 0 120 120" style="enable-background:new 0 0 120 120;" xml:space="preserve">
<style type="text/css">
	.st0{opacity:0.4;fill:#FFFFFF;}
	.st1{fill:none;stroke:#FFFFFF;stroke-width:5;stroke-linecap:square;stroke-linejoin:round;stroke-miterlimit:10;}
	.st2{fill:#FFFFFF;}
	.st3{fill:none;stroke:#FFFFFF;stroke-width:4;stroke-linecap:round;stroke-linejoin:round;stroke-miterlimit:10;}
	.st4{opacity:6.000000e-02;}
</style>
<g id="Слой_3">
</g>
<g id="Слой_2">
	<path class="st0" d="M81.4,89H39.6C37,89,35,87,35,84.4l1.8-40.1c0-2.5,2-4.6,4.6-4.6h38.2c2.5,0,4.6,2,4.6,4.6L86,84.4
		C86,87,84,89,81.4,89z"/>
	<path class="st1" d="M81.4,89H39.6C37,89,35,87,35,84.4l1.8-40.1c0-2.5,2-4.6,4.6-4.6h38.2c2.5,0,4.6,2,4.6,4.6L86,84.4
		C86,87,84,89,81.4,89z"/>
	<circle class="st2" cx="50.8" cy="46.2" r="3.2"/>
	<circle class="st2" cx="70.8" cy="46.2" r="3.2"/>
	<path class="st3" d="M50.5,46.5l1-16c0,0,1-9,9-9s9,9,9,9l1,16"/>
	<g>
		<path class="st4" d="M71.5,30.3l0.4,7h3.7l-0.1-2c-0.3-2.6-1.7-6.7-5.1-9.1C71,27.7,71.4,29.1,71.5,30.3z"/>
		<path class="st4" d="M92.5,89.3l-1.8-40c0-2.8-1.7-5.3-4.1-6.4c0.1,0.4,0.1,0.9,0.1,1.4l1.8,40c0,0,0,0.1,0,0.1
			c0,3.9-3.2,7.1-7.1,7.1H39.6c-1,0-2-0.2-2.9-0.6c0.7,3.2,3.5,5.6,6.9,5.6h41.9c3.9,0,7.1-3.2,7.1-7.1
			C92.5,89.4,92.5,89.4,92.5,89.3z"/>
		<path class="st4" d="M57.5,35.7c0-0.3,0.9-7.2,7-7.2c1,0,1.9,0.2,2.6,0.5c-0.4-1.4-1.3-3.3-3.1-4.5c-7.4,0.3-10.1,7.1-10.6,10.8
			l-0.1,1.9h4L57.5,35.7z"/>
	</g>
</g>
</svg>
