<?xml version="1.0" encoding="utf-8"?>
<!-- Generator: Adobe Illustrator 18.1.1, SVG Export Plug-In . SVG Version: 6.00 Build 0)  -->
<!DOCTYPE svg PUBLIC "-//W3C//DTD SVG 1.1//EN" "http://www.w3.org/Graphics/SVG/1.1/DTD/svg11.dtd">
<svg version="1.1" xmlns="http://www.w3.org/2000/svg" xmlns:xlink="http://www.w3.org/1999/xlink" x="0px" y="0px"
	 viewBox="0 0 120 120" enable-background="new 0 0 120 120" xml:space="preserve">
<g id="Layer_4">
	<path opacity="6.000000e-002" d="M90.5,43c2.2,3.8,3.4,8.1,3.4,12.8c0,13.4-10.2,24.4-23.3,25.7c-3.1,0.6-3.7,1.3-3.7,2.7
		c0,1.1,0.1,4.1,0,6.5c-0.1,1.8-2.2,1.5-3.7,0s-5.1-5.2-6.9-6.9c-1.8-1.6-4.5-2.1-5.6-2.2h-1.4c-6.7,0-12.8-2.6-17.4-6.8
		c4.5,7.7,12.8,13,22.4,13h1.4c1.1,0.1,3.8,0.6,5.6,2.2c1.8,1.7,5.4,5.4,6.9,6.9s3.6,1.8,3.7,0c0.1-2.4,0-5.4,0-6.5
		c-0.1-1.5,0.6-2.1,3.7-2.7c13-1.3,23.3-12.3,23.3-25.7C98.9,54.5,95.6,47.7,90.5,43z"/>
</g>
<g id="Layer_2">
	<path fill="none" stroke="#FFFFFF" stroke-width="4" stroke-miterlimit="10" d="M68.1,79.6H49.4c-13.1,0-23.8-10.7-23.8-23.8v0
		C25.7,42.7,36.4,32,49.4,32h18.7c13.1,0,23.8,10.7,23.8,23.8v0C91.9,68.9,81.2,79.6,68.1,79.6z"/>
	<path opacity="0.4" fill="#FFFFFF" d="M68.1,80.4H49.4c-13.1,0-23.8-10.7-23.8-23.8v0c0-13.1,10.7-23.8,23.8-23.8h18.7
		c13.1,0,23.8,10.7,23.8,23.8v0C91.9,69.7,81.2,80.4,68.1,80.4z"/>
	<path fill="#FFFFFF" d="M50.3,81.6c0,0,3.8,0.2,6.1,2.2c1.8,1.7,5.4,5.4,6.9,6.9s3.6,1.8,3.7,0c0.1-2.4,0-5.4,0-6.5
		c-0.1-1.8,0.9-2.4,6.4-3.2C67.4,81.2,50.3,81.6,50.3,81.6z"/>
	<circle fill="#FFFFFF" cx="46.7" cy="56.7" r="3.1"/>
	<circle fill="#FFFFFF" cx="58.7" cy="56.7" r="3.1"/>
	<circle fill="#FFFFFF" cx="70.9" cy="56.6" r="3.1"/>
</g>
</svg>
