<?xml version="1.0" encoding="utf-8"?>
<!-- Generator: Adobe Illustrator 22.0.1, SVG Export Plug-In . SVG Version: 6.00 Build 0)  -->
<svg version="1.1" xmlns="http://www.w3.org/2000/svg" xmlns:xlink="http://www.w3.org/1999/xlink" x="0px" y="0px"
	 viewBox="0 0 120 120" style="enable-background:new 0 0 120 120;" xml:space="preserve">
<style type="text/css">
	.st0{fill:none;stroke:#FFFFFF;stroke-width:4;stroke-linecap:round;stroke-linejoin:round;stroke-miterlimit:10;}
	.st1{opacity:0.4;fill:#FFFFFF;}
	.st2{opacity:6.000000e-02;}
</style>
<g id="Слой_1">
</g>
<g id="Слой_3">
</g>
<g id="Слой_2">
	<path class="st0" d="M34.5,79.5l17-5v-9c0,0,1-15,0-18s-3-11-12-10c-5,0.6-14,5-12,23C28.5,69.4,34.5,79.5,34.5,79.5z"/>
	<path class="st0" d="M37.5,85.5l16-5c0,0,2,7,2,10s-2,6-6,7s-8-2-9-4S37.5,85.5,37.5,85.5z"/>
	<path class="st1" d="M34,79.5l17-5v-9c0,0,1-15,0-18s-3-11-12-10c-5,0.6-14,5-12,23C28,69.4,34,79.5,34,79.5z"/>
	<path class="st1" d="M37,85.5l16-5c0,0,2,7,2,10s-2,6-6,7s-8-2-9-4S37,85.5,37,85.5z"/>
	<path class="st0" d="M82.7,65.5l-17-5v-9c0,0-1-15,0-18s3-11,12-10c5,0.6,14,5,12,23C88.7,55.4,82.7,65.5,82.7,65.5z"/>
	<path class="st0" d="M79.7,71.5l-16-5c0,0-2,7-2,10s2,6,6,7s8-2,9-4S79.7,71.5,79.7,71.5z"/>
	<path class="st1" d="M83.2,65.5l-17-5v-9c0,0-1-15,0-18s3-11,12-10c5,0.6,14,5,12,23C89.2,55.4,83.2,65.5,83.2,65.5z"/>
	<path class="st1" d="M80.2,71.5l-16-5c0,0-2,7-2,10s2,6,6,7s8-2,9-4S80.2,71.5,80.2,71.5z"/>
	<g class="st2">
		<path d="M52.9,78.6c0.5-0.2,1.1-0.1,1.5,0.1c0.5,0.3,0.8,0.7,1,1.2c0.1,0.2,0.2,0.9,0.5,1.8l1.2-0.3c0.9-0.3,1.4-1,1.4-1.9v-8.9
			c0.2-2.7,1-15.5-0.1-18.7l-0.2-0.5c-0.8-2.3-2.4-7.4-7-9.7c1,1.8,1.6,3.6,2,4.7l0.2,0.5c1.1,3.2,0.3,16,0.1,18.7v8.9
			c0,0.9-0.6,1.7-1.4,1.9l-16.5,4.9c0.4,0.9,0.9,1.7,1.2,2.4c0.1,0,0.1-0.1,0.2-0.1L52.9,78.6z"/>
		<path d="M59.4,83.7c-0.5-0.3-1-0.3-1.5-0.1L56.5,84c0.5,2.2,1,4.8,1,6.5c0,4.3-2.9,7.8-7.5,8.9c-0.7,0.2-1.4,0.3-2.1,0.3
			c-1.6,0-3.2-0.4-4.6-1.1c0.1,0.3,0.3,0.6,0.4,0.8c1.2,2.5,5.1,5.3,9.2,5.3c0.7,0,1.4-0.1,2.1-0.3c4.6-1.1,7.5-4.7,7.5-8.9
			c0-3.2-1.9-9.8-2.1-10.5C60.3,84.4,59.9,84,59.4,83.7z"/>
		<path d="M88.9,28.6c2.3,3.7,3.8,9.4,2.8,18.1c-1,9.3-7,19.4-7.3,19.8c-0.4,0.6-1,1-1.7,1c-0.2,0-0.4,0-0.6-0.1l-13.4-4v2
			c0,0.2,0,0.3,0.1,0.5l11.5,3.6c0.5,0.2,0.9,0.5,1.2,1c0,0.1,0,0.1,0.1,0.2l5.6,1.6c0.2,0.1,0.4,0.1,0.6,0.1c0.7,0,1.3-0.4,1.7-1
			c0.3-0.4,6.2-10.5,7.3-19.8C98.3,37.5,93.4,31.3,88.9,28.6z"/>
		<path d="M69.3,85.7c-0.7,0-1.4-0.1-2.1-0.3c-0.7-0.2-1.3-0.4-1.9-0.6c1.1,2.7,3.6,4.8,6.9,5.6c0.7,0.2,1.4,0.3,2.1,0.3
			c4.1,0,7.9-2.8,9.2-5.3c1.1-2.1,3-8,3.1-8.3c0.2-0.5,0.1-1.1-0.1-1.5s-0.7-0.8-1.2-1l-4.1-1.3c-0.6,1.9-1.9,5.5-2.7,7.1
			C77.3,82.9,73.4,85.7,69.3,85.7z"/>
	</g>
</g>
</svg>
