<?xml version="1.0" encoding="utf-8"?>
<!-- Generator: Adobe Illustrator 18.1.1, SVG Export Plug-In . SVG Version: 6.00 Build 0)  -->
<!DOCTYPE svg PUBLIC "-//W3C//DTD SVG 1.1//EN" "http://www.w3.org/Graphics/SVG/1.1/DTD/svg11.dtd">
<svg version="1.1" xmlns="http://www.w3.org/2000/svg" xmlns:xlink="http://www.w3.org/1999/xlink" x="0px" y="0px"
	 viewBox="0 0 120 120" enable-background="new 0 0 120 120" xml:space="preserve">
<g id="Layer_1">
</g>
<g id="Layer_3" display="none">
	<rect x="-15.7" y="-15" display="inline" fill="#EF4136" width="150.5" height="161.5"/>
</g>
<g id="Layer_2">
	<path fill="#FFFFFF" d="M49.9,76H32.3c-1.6,0-3.2-1.2-3.2-3.4c0-1.3,0.6-6.6,2.7-8.6c1.1-1.1,5.1-2.4,8.8-3.5
		c-2.8-2.5-3.9-7.1-3.9-11.5c0-3.9,3.7-8.3,9-8.3c1.9,0,3.6,0.6,5,1.5c2.4-3.5,5.5-6.4,9.1-8.6c-4.6-2.8-10.1-4.5-15.9-4.5
		c-16.9,0-30.6,13.7-30.6,30.6S27,90.3,43.9,90.3c5.8,0,11.3-1.6,15.9-4.5C55.8,83.3,52.4,80,49.9,76z M43.1,83
		C43.1,83,43.1,83,43.1,83C43.1,83,43.2,83,43.1,83L43.1,83z"/>
	<path fill="#FFFFFF" d="M75.7,29.2c-5.8,0-11.3,1.6-15.9,4.5c3.4,2.1,6.4,4.9,8.8,8.1c1.2-0.6,2.6-1,4.1-1c5.3,0,9,4.4,9,8.3
		c0,3.6-1,9-4.3,11.7c7.6,2.4,8.2,3,8.5,3.2c1.3,1.3,2.7,7.8,2.7,8.6c0,2.1-1.7,3.4-3.2,3.4H69.7c-2.5,4-5.9,7.3-9.9,9.8
		c4.6,2.8,10.1,4.5,15.9,4.5c16.9,0,30.6-13.7,30.6-30.6S92.6,29.2,75.7,29.2z M70.1,83C70.1,83,70.1,83,70.1,83
		C70.1,83,70.2,83,70.1,83L70.1,83z"/>
	<path opacity="0.6" fill="#FFFFFF" d="M50.7,42.2c2.5,1.6,4,4.3,4,6.8c0,3.6-1,9-4.3,11.7c7.2,2.3,8.1,2.9,8.4,3.2
		c1.2-1.1,5.1-2.4,8.8-3.4c-2.8-2.5-3.9-7.1-3.9-11.5c0-2.8,1.9-5.8,4.9-7.3c-2.4-3.2-5.3-6-8.8-8.1C56.2,35.8,53.1,38.8,50.7,42.2z
		"/>
	<path opacity="0.6" fill="#FFFFFF" d="M69.7,76H59.3c-0.2,0-0.3,0-0.5,0c-0.2,0-0.3,0-0.5,0h-8.4c2.5,4,5.9,7.3,9.9,9.8
		C63.8,83.3,67.2,80,69.7,76z"/>
	<path fill="#FFFFFF" d="M43.1,83L43.1,83C43.2,83,43.1,83,43.1,83C43.1,83,43.1,83,43.1,83z"/>
	<path fill="#FFFFFF" d="M70.1,83L70.1,83C70.2,83,70.1,83,70.1,83C70.1,83,70.1,83,70.1,83z"/>
</g>
<g id="Layer_4">
	<path fill="#FFFFFF" d="M69.7,83.3C69.7,83.3,69.6,83.3,69.7,83.3C69.6,83.3,69.6,83.3,69.7,83.3L69.7,83.3z"/>
	<path fill="#FFFFFF" d="M42.7,83.3C42.7,83.3,42.6,83.3,42.7,83.3C42.6,83.3,42.6,83.3,42.7,83.3L42.7,83.3z"/>
	<path opacity="6.000000e-002" d="M100.4,42.8c3.4,4.9,5.3,10.8,5.3,17.2c0,16.9-13.7,30.6-30.6,30.6c-5.8,0-11.3-1.6-15.9-4.5
		c-4.6,2.8-10.1,4.5-15.9,4.5c-7.9,0-15.1-3-20.6-7.9c5.5,8,14.7,13.3,25.2,13.3c5.8,0,11.3-1.6,15.9-4.5c4.6,2.8,10.1,4.5,15.9,4.5
		c16.9,0,30.6-13.7,30.6-30.6C110.4,56.4,106.6,48.3,100.4,42.8z"/>
</g>
</svg>
