<?xml version="1.0" encoding="utf-8"?>
<!-- Generator: Adobe Illustrator 18.1.1, SVG Export Plug-In . SVG Version: 6.00 Build 0)  -->
<!DOCTYPE svg PUBLIC "-//W3C//DTD SVG 1.1//EN" "http://www.w3.org/Graphics/SVG/1.1/DTD/svg11.dtd">
<svg version="1.1" xmlns="http://www.w3.org/2000/svg" xmlns:xlink="http://www.w3.org/1999/xlink" x="0px" y="0px"
	 viewBox="0 0 120 120" enable-background="new 0 0 120 120" xml:space="preserve">
<g id="Layer_1">
</g>
<g id="Layer_3">
</g>
<g id="Layer_2">
	<g opacity="6.000000e-002">
		<path d="M65.2,55.7c0,1.2,0.1,2.4,0.3,3.5c0.3,1.6,1.4,2,2.5,0.8c0.6-0.6,1.2-1.3,1.7-2c0-1.5,0.1-3,0.1-4.5c0-0.7,0-1.4-0.2-2.1
			c-0.2-1.3-1-2.3-2.3-2.6c-0.7-0.1-1.4-0.2-2.1-0.3C65.3,51,65.2,53.4,65.2,55.7z"/>
		<path d="M90.5,52c-2.2,3.1-4.5,6.1-6.7,9.1c-0.3,0.4-0.5,0.8-0.8,1.2c-0.8,1.5-0.8,2.4,0.4,3.6c1.2,1.3,2.5,2.5,3.7,3.7
			c0.1-0.2,0.2-0.4,0.3-0.6c0.2-0.4,0.5-0.8,0.8-1.2c2.2-3,4.5-6,6.7-9.1c1.4-1.9,2.6-3.9,3.2-6.3c0.2-1-0.2-1.8-1.1-2.1
			c-0.6-0.2-1.3-0.2-1.9-0.3c-1.1,0-2.2,0-3.4,0C91.4,50.8,91,51.4,90.5,52z"/>
		<path d="M47.5,59.1c-1.2-2.1-2.2-4.3-3.1-6.5c-0.5-1.3-1.4-2-2.5-2.3C43.4,53.4,45.3,56.4,47.5,59.1z"/>
		<path d="M93.9,78.7c0-0.1-0.1-0.1-0.1-0.1c0.1,1.4-0.8,2.5-2.7,2.8c-1.6,0.2-9.5,0-9.9,0c-2.1,0-4-0.7-5.5-2.2
			c-1.7-1.6-3.2-3.3-4.8-5c-0.5-0.5-1-1-1.5-1.4c-1.3-1-2.6-0.8-3.2,0.8c-0.5,1.3-1,4.8-1,5.1c-0.1,1.5-1.1,2.5-2.8,2.6
			c-5,0.3-9.8-0.3-14.3-2.7c-3.8-2-6.9-4.9-9.5-8.3c-0.4-0.5-0.8-1-1.2-1.5c1.7,2.9,3.6,5.6,5.6,8.3c2.6,3.4,5.7,6.2,9.5,8.3
			c4.5,2.4,9.3,3,14.3,2.7c1.7-0.1,2.7-1.1,2.8-2.6c0-0.3,0.5-3.7,1-5.1c0.6-1.5,1.9-1.7,3.2-0.8c0.6,0.4,1.1,0.9,1.5,1.4
			c1.6,1.7,3.1,3.4,4.8,5c1.5,1.4,3.3,2.2,5.5,2.2c0.4,0,8.3,0.2,9.9,0c2.6-0.4,3.4-2.4,2-4.6C96.5,81.8,95.2,80.1,93.9,78.7z"/>
	</g>
	<path fill="#FFFFFF" d="M28.3,53c3,6,6.3,11.9,10.5,17.3c2.6,3.4,5.7,6.2,9.5,8.3c4.5,2.4,9.3,3,14.3,2.7c1.7-0.1,2.7-1.1,2.8-2.6
		c0-0.3,0.5-3.7,1-5.1c0.6-1.5,1.9-1.7,3.2-0.8c0.6,0.4,1.1,0.9,1.5,1.4c1.6,1.7,3.1,3.4,4.8,5c1.5,1.4,3.3,2.2,5.5,2.2
		c0.4,0,8.3,0.2,9.9,0c2.6-0.4,3.4-2.4,2-4.6c-1.1-1.7-2.3-3.3-3.7-4.8c-1.9-2.1-4-3.9-5.9-5.9c-1.2-1.3-1.3-2.1-0.4-3.6
		c0.2-0.4,0.5-0.8,0.8-1.2c2.2-3,4.5-6,6.7-9.1c1.4-1.9,2.6-3.9,3.2-6.3c0.2-1-0.2-1.8-1.1-2.1c-0.6-0.2-1.3-0.2-1.9-0.3
		c-3.6,0-7.1,0-10.7,0c-1.9,0-2.4,0.4-3.1,2.2c-1.4,3.4-2.9,6.7-5,9.8c-1.2,1.7-2.4,3.3-3.8,4.7c-1.1,1.1-2.2,0.7-2.5-0.8
		c-0.2-1.1-0.3-2.3-0.3-3.5c0-3,0.2-5.9,0.2-8.9c0-0.7,0-1.4-0.2-2.1c-0.2-1.3-1-2.3-2.3-2.6c-1-0.2-2.1-0.3-3.2-0.3
		c-2.6,0-5.2-0.1-7.8,0c-1.6,0.1-3.1,0.3-4.1,1.7c-0.5,0.6-0.4,1.3,0.4,1.4c2.6,0.5,3.2,2,3.3,3.7c0.1,2.7,0.2,4.5,0.2,7.2
		c0,1-0.3,3.1-0.7,4c-0.3,0.9-1.1,1.1-1.9,0.6c-0.6-0.4-1.1-0.9-1.5-1.4c-3.2-4-5.7-8.5-7.6-13.3c-0.7-1.7-1.8-2.3-3.4-2.4
		c-0.2,0-10.2-0.2-10.8,0c-0.9,0.3-1.1,1.3-0.9,2.4C25.1,46.2,28.1,52.7,28.3,53z"/>
</g>
</svg>
